Release info:

Format                                   : Matroska
Format version                           : Version 4 / Version 2
File size                                : 1.42 GiB
Duration                                 : 1h 52mn
Overall bit rate                         : 1 798 Kbps
Movie name                               : Gangster Squad 2013 R6 HDRip English

Video
ID                                       : 1
Format                                   : MPEG-4 Visual
Format profile                           : Advanced Simple@L5
Format settings, BVOP                    : Yes
Format settings, QPel                    : No
Format settings, GMC                     : No warppoints
Format settings, Matrix                  : Default (H.263)
Codec ID                                 : V_MS/VFW/FOURCC / XVID
Codec ID/Hint                            : XviD
Duration                                 : 1h 52mn
Bit rate                                 : 1 634 Kbps
Width                                    : 720 pixels
Height                                   : 304 pixels
Display aspect ratio                     : 2.35:1
Frame rate mode                          : Constant
Frame rate                               : 25.000 fps
Color space                              : YUV
Chroma subsampling                       : 4:2:0
Bit depth                                : 8 bits
Scan type                                : Progressive
Compression mode                         : Lossy
Bits/(Pixel*Frame)                       : 0.299
Stream size                              : 1.29 GiB (91%)
Title                                    : Gangster Squad 2013 R6 HDRip English
Writing library                          : XviD 64
Language                                 : English
Default                                  : Yes
Forced                                   : No

Audio
ID                                       : 2
Format                                   : AC-3
Format/Info                              : Audio Coding 3
Mode extension                           : CM (complete main)
Format settings, Endianness              : Big
Codec ID                                 : A_AC3
Duration                                 : 1h 52mn
Bit rate mode                            : Constant
Bit rate                                 : 128 Kbps
Channel(s)                               : 2 channels
Channel positions                        : Front: L R
Sampling rate                            : 44.1 KHz
Bit depth                                : 16 bits
Compression mode                         : Lossy
Stream size                              : 103 MiB (7%)
Title                                    : Gangster Squad 2013 R6 HDRip English
Language                                 : English
Default                                  : Yes
Forced                                   : No



Source:
credit to original movie ripper 1MPERiUM (Thanks)

IMDB Info:

Los Angeles, 1949: A secret crew of police officers led by two determined sergeants work together in an effort to take down the ruthless mob king Mickey Cohen who runs the city.

Director: Ruben Fleischer
Writers: Will Beall, Paul Lieberman (book)
Stars: Sean Penn, Ryan Gosling and Emma Stone 

Genres: Action | Crime | Drama | Thriller
 
http://www.imdb.com/title/tt1321870/

Screen Shot:
 
http://www.shotpix.com/images/97504687840857610448.png 
http://www.shotpix.com/images/24998068006393867468.png 
http://www.shotpix.com/images/62115489604173561054.png 
http://www.shotpix.com/images/11246034346640626732.png 
http://www.shotpix.com/images/56495289704134380764.png